<svg height="32" viewBox="0 0 32 32" width="32" xmlns="http://www.w3.org/2000/svg"><path d="m16 2a14 14 0 1 0 14 14 14.0158 14.0158 0 0 0 -14-14zm11.9492 13h-5.9082a14.4088 14.4088 0 0 1 2.7383-7.1533 11.9392 11.9392 0 0 1 3.1699 7.1533zm-10.9492 0v-10.9492a11.9181 11.9181 0 0 1 6.2874 2.4375 16.2646 16.2646 0 0 0 -3.2474 8.5117zm-2 0h-3.04a16.2646 16.2646 0 0 0 -3.2474-8.5117 11.9181 11.9181 0 0 1 6.2874-2.4375zm0 2v10.9492a11.9181 11.9181 0 0 1 -6.2874-2.4375 16.2646 16.2646 0 0 0 3.2474-8.5117zm2 0h3.04a16.2646 16.2646 0 0 0 3.2476 8.5117 11.9181 11.9181 0 0 1 -6.2876 2.4375zm-9.7793-9.1533a14.4088 14.4088 0 0 1 2.7383 7.1533h-5.9082a11.9392 11.9392 0 0 1 3.1699-7.1533zm-3.1699 9.1533h5.9082a14.4088 14.4088 0 0 1 -2.7383 7.1533 11.9392 11.9392 0 0 1 -3.1699-7.1533zm20.7285 7.1533a14.4088 14.4088 0 0 1 -2.7383-7.1533h5.9082a11.9392 11.9392 0 0 1 -3.1699 7.1533z"/><path d="m0 0h32v32h-32z" fill="none"/></svg>